<?xml version="1.0" encoding="iso-8859-1"?>
<!-- Generator: Adobe Illustrator 19.0.0, SVG Export Plug-In . SVG Version: 6.00 Build 0)  -->
<svg version="1.1" id="Capa_1" xmlns="http://www.w3.org/2000/svg" xmlns:xlink="http://www.w3.org/1999/xlink" x="0px" y="0px"
	 viewBox="0 0 451.12 451.12" fill="#fff" style="enable-background:new 0 0 451.12 451.12;" xml:space="preserve">
<g>
	<g>
		<path d="M433.92,91.2H342c-9.499,0-17.2,7.701-17.2,17.2v220.64c0,9.499,7.701,17.2,17.2,17.2h91.92c9.499,0,17.2-7.701,17.2-17.2
			V108.4C451.12,98.901,443.419,91.2,433.92,91.2z M435.12,329.04c0,0.663-0.537,1.2-1.2,1.2H342c-0.663,0-1.2-0.537-1.2-1.2V180.4
			h94.32V329.04z M435.12,164.4H340.8v-22h94.32V164.4z M435.12,126.48H340.8V108.4c0-0.663,0.537-1.2,1.2-1.2h91.92
			c0.663,0,1.2,0.537,1.2,1.2V126.48z"/>
	</g>
</g>
<g>
	<g>
		<circle cx="387.92" cy="280.24" r="16.88"/>
	</g>
</g>
<g>
	<g>
		<path d="M286.32,96.8c-7.419-3.799-15.666-5.696-24-5.52H43.12c-27.04,0-43.12,16-43.12,43.2v120c0,22.64,10.32,33.52,18.96,38.64
			c7.535,4.242,16.076,6.371,24.72,6.16h71.44v24.96h-22.4c-7.379-0.428-14.619,2.139-20.08,7.12
			c-4.971,5.247-7.573,12.302-7.2,19.52c0,4.418,3.582,8,8,8c4.418,0,8-3.582,8-8c-0.231-2.886,0.657-5.75,2.48-8
			c2.584-1.955,5.82-2.843,9.04-2.48h114.8c2.41-0.078,4.802,0.445,6.96,1.52c1.92,1.04,4.56,3.2,4.56,10c0,4.418,3.582,8,8,8
			c4.418,0,8-3.582,8-8c0.681-9.853-4.403-19.209-13.04-24c-4.474-2.301-9.45-3.455-14.48-3.36H185.6v-25.28h76.72
			c33.04,0,44.8-23.12,44.8-44.8V136C307.12,112.8,295.76,101.84,286.32,96.8z M169.6,324.24h-38.48v-24.96H170L169.6,324.24z
			 M291.12,136v118.48c0,13.12-4.96,28.8-28.8,28.8H43.76c-5.8,0.227-11.551-1.128-16.64-3.92
			c-8.073-5.594-12.361-15.217-11.12-24.96v-120c0-18.32,8.88-27.2,27.12-27.2h219.2c5.686-0.142,11.319,1.122,16.4,3.68
			C287.459,116.063,292.32,125.911,291.12,136z"/>
	</g>
</g>
<g>
	<g>
		<path d="M177.6,116.24h-48c-4.418,0-8,3.582-8,8s3.582,8,8,8h48c4.418,0,8-3.582,8-8C185.6,119.822,182.018,116.24,177.6,116.24z"
			/>
	</g>
</g>
<g>
</g>
<g>
</g>
<g>
</g>
<g>
</g>
<g>
</g>
<g>
</g>
<g>
</g>
<g>
</g>
<g>
</g>
<g>
</g>
<g>
</g>
<g>
</g>
<g>
</g>
<g>
</g>
<g>
</g>
</svg>
